# xmcd
# 
# Track frame offsets:
#     150
#     18660
#     33643
#     48063
#     66950
#     80720
#     94210
#     110783
#     126545
#     143393
#     160683
#     177165
#     191530
#     207045
# 
# Disc length: 2971
# 
# Revision: 10
# Processed by: cddbd v1.5.2PL0 Copyright (c) Steve Scherf et al.
# Submitted via: BonkEnc v1.0.6
# 
DISCID=c20b990e
DTITLE=Diamond Rio - Greatest Hits
DYEAR=1997
DGENRE=Country
TTITLE0=How Your Love Makes Me Feel
TTITLE1=Meet In The Middle
TTITLE2=Mirror Mirror
TTITLE3=Mama Don't Forget To Pray For Me
TTITLE4=Norma Jean Riley
TTITLE5=In A Week Or Two
TTITLE6=Love A Little Stronger
TTITLE7=Night Is Fallin' In My Heart
TTITLE8=Bubba Hyde
TTITLE9=Walkin' Away
TTITLE10=It's All In Your Head
TTITLE11=Holdin'
TTITLE12=She Misses Him On Sunday The Most
TTITLE13=Imagine That
EXTD=
EXTT0=
EXTT1=
EXTT2=
EXTT3=
EXTT4=
EXTT5=
EXTT6=
EXTT7=
EXTT8=
EXTT9=
EXTT10=
EXTT11=
EXTT12=
EXTT13=
PLAYORDER=
